<svg width="64" height="64" viewBox="0 0 64 64" fill="none" xmlns="http://www.w3.org/2000/svg">
<path d="M62.7942 29.1499L34.8508 1.20821C34.468 0.82518 34.0135 0.521326 33.5132 0.314015C33.0129 0.106704 32.4767 0 31.9352 0C31.3937 0 30.8575 0.106704 30.3572 0.314015C29.857 0.521326 29.4025 0.82518 29.0197 1.20821L23.2193 7.01149L30.5785 14.3707C31.4437 14.0769 32.3738 14.031 33.2637 14.2383C34.1536 14.4456 34.9678 14.8978 35.6141 15.5437C36.264 16.1942 36.7177 17.0146 36.9233 17.9109C37.1289 18.8073 37.078 19.7433 36.7766 20.6121L43.8718 27.7053C44.7408 27.4035 45.6772 27.3526 46.5738 27.5586C47.4703 27.7646 48.2907 28.219 48.9409 28.8699C49.3963 29.3252 49.7575 29.8658 50.004 30.4608C50.2505 31.0557 50.3773 31.6934 50.3773 32.3374C50.3773 32.9814 50.2505 33.6191 50.004 34.2141C49.7575 34.809 49.3963 35.3496 48.9409 35.805C48.0202 36.7247 46.772 37.2414 45.4706 37.2414C44.1692 37.2414 42.921 36.7247 42.0003 35.805C41.3163 35.1199 40.8503 34.2477 40.6609 33.2984C40.4716 32.349 40.5673 31.3648 40.936 30.4697L34.3193 23.855V41.2656C35.0177 41.6105 35.6239 42.117 36.0876 42.7429C36.5513 43.3688 36.8592 44.0961 36.9858 44.8647C37.1124 45.6333 37.0541 46.421 36.8157 47.1626C36.5773 47.9042 36.1656 48.5783 35.6148 49.1291C35.1595 49.5845 34.6189 49.9458 34.0239 50.1922C33.429 50.4387 32.7913 50.5656 32.1473 50.5656C31.5033 50.5656 30.8656 50.4387 30.2707 50.1922C29.6757 49.9458 29.1351 49.5845 28.6798 49.1291C28.2243 48.6737 27.8629 48.1331 27.6164 47.5381C27.3699 46.943 27.243 46.3053 27.243 45.6612C27.243 45.0171 27.3699 44.3793 27.6164 43.7843C27.8629 43.1893 28.2243 42.6486 28.6798 42.1933C29.1387 41.7335 29.6841 41.3692 30.2845 41.1214V23.5507C29.6865 23.3044 29.1431 22.9423 28.6854 22.4853C28.2278 22.0284 27.8649 21.4855 27.6177 20.8878C27.3704 20.2902 27.2437 19.6496 27.2448 19.0029C27.2459 18.3561 27.3747 17.716 27.6239 17.1192L20.3678 9.86158L1.20584 29.0189C0.433671 29.7926 0 30.8411 0 31.9341C0 33.0272 0.433671 34.0757 1.20584 34.8494L29.1506 62.7945C29.9243 63.5665 30.9726 64 32.0655 64C33.1584 64 34.2067 63.5665 34.9803 62.7945L62.7942 34.9803C63.5663 34.2066 64 33.1582 64 32.0651C64 30.972 63.5663 29.9236 62.7942 29.1499Z" fill="#212121"/>
</svg>
